<mxfile host="app.diagrams.net" modified="2023-02-23T15:41:55.055Z" agent="5.0 (Windows NT 10.0; Win64; x64) AppleWebKit/537.36 (KHTML, like Gecko) Chrome/110.0.0.0 Safari/537.36" etag="CUv6wmrZKXw_qQNnoEjg" version="20.8.23" type="github">
  <diagram name="Page-1" id="cVpQzBSktgYKYHSZKXAB">
    <mxGraphModel dx="1370" dy="274" grid="1" gridSize="10" guides="1" tooltips="1" connect="1" arrows="1" fold="1" page="1" pageScale="1" pageWidth="850" pageHeight="1100" math="0" shadow="0">
      <root>
        <mxCell id="0" />
        <mxCell id="1" parent="0" />
        <mxCell id="tBPBzIj6Ai8y_hr5QdfF-3" value="Hệ thống quản lý &lt;br&gt;chăn nuôi" style="html=1;dashed=0;whitespace=wrap;" vertex="1" parent="1">
          <mxGeometry x="430" y="50" width="100" height="50" as="geometry" />
        </mxCell>
        <mxCell id="tBPBzIj6Ai8y_hr5QdfF-5" value="Quản lý CSDL khác&amp;nbsp;&lt;br&gt;về chăn nuôi" style="html=1;dashed=0;whitespace=wrap;" vertex="1" parent="1">
          <mxGeometry x="740" y="150" width="110" height="50" as="geometry" />
        </mxCell>
        <mxCell id="tBPBzIj6Ai8y_hr5QdfF-6" value="Quản lý CSDL về&amp;nbsp;&lt;br&gt;cơ sở chăn nuôi,&lt;br&gt;chế biến, thị trường" style="html=1;dashed=0;whitespace=wrap;" vertex="1" parent="1">
          <mxGeometry x="570" y="150" width="110" height="50" as="geometry" />
        </mxCell>
        <mxCell id="tBPBzIj6Ai8y_hr5QdfF-7" value="Quản lý CSDL về&amp;nbsp;&lt;br&gt;sản phẩm xử lý chất&lt;br&gt;thải chăn nuôi" style="html=1;dashed=0;whitespace=wrap;" vertex="1" parent="1">
          <mxGeometry x="365" y="150" width="120" height="50" as="geometry" />
        </mxCell>
        <mxCell id="tBPBzIj6Ai8y_hr5QdfF-8" value="Quản trị hệ thống" style="html=1;dashed=0;whitespace=wrap;" vertex="1" parent="1">
          <mxGeometry x="-40" y="150" width="100" height="50" as="geometry" />
        </mxCell>
        <mxCell id="tBPBzIj6Ai8y_hr5QdfF-9" value="Quản lý thông tin&lt;br&gt;giấy phép &lt;br&gt;chăn nuôi" style="html=1;dashed=0;whitespace=wrap;" vertex="1" parent="1">
          <mxGeometry x="580" y="470" width="100" height="50" as="geometry" />
        </mxCell>
        <mxCell id="tBPBzIj6Ai8y_hr5QdfF-10" value="" style="html=1;dashed=0;whitespace=wrap;" vertex="1" parent="1">
          <mxGeometry x="750" y="370" width="100" height="50" as="geometry" />
        </mxCell>
        <mxCell id="tBPBzIj6Ai8y_hr5QdfF-11" value="Quản lý điều kiện&lt;br&gt;chăn nuôi" style="html=1;dashed=0;whitespace=wrap;" vertex="1" parent="1">
          <mxGeometry x="580" y="370" width="100" height="50" as="geometry" />
        </mxCell>
        <mxCell id="tBPBzIj6Ai8y_hr5QdfF-12" value="" style="html=1;dashed=0;whitespace=wrap;" vertex="1" parent="1">
          <mxGeometry x="750" y="260" width="100" height="50" as="geometry" />
        </mxCell>
        <mxCell id="tBPBzIj6Ai8y_hr5QdfF-13" value="Quản lý/Tìm kiếm&lt;br&gt;cơ sở chăn nuôi" style="html=1;dashed=0;whitespace=wrap;" vertex="1" parent="1">
          <mxGeometry x="580" y="260" width="100" height="50" as="geometry" />
        </mxCell>
        <mxCell id="tBPBzIj6Ai8y_hr5QdfF-14" value="Quản lý/Tìm kiếm&lt;br&gt;cơ sở khảo nghiệm&lt;br&gt;sản phẩm xử lý&lt;br&gt;chất thải chăn nuôi" style="html=1;dashed=0;whitespace=wrap;" vertex="1" parent="1">
          <mxGeometry x="375" y="370" width="105" height="60" as="geometry" />
        </mxCell>
        <mxCell id="tBPBzIj6Ai8y_hr5QdfF-15" value="Quản lý/Tìm kiếm&lt;br&gt;cơ sở sản xuất&lt;br&gt;sản phẩm xử lý&lt;br&gt;chất thải chăn nuôi" style="html=1;dashed=0;whitespace=wrap;" vertex="1" parent="1">
          <mxGeometry x="375" y="260" width="105" height="60" as="geometry" />
        </mxCell>
        <mxCell id="tBPBzIj6Ai8y_hr5QdfF-16" value="Quản lý/Tìm kiếm&lt;br&gt;lịch sử truy cập" style="html=1;dashed=0;whitespace=wrap;" vertex="1" parent="1">
          <mxGeometry x="-69" y="670" width="100" height="50" as="geometry" />
        </mxCell>
        <mxCell id="tBPBzIj6Ai8y_hr5QdfF-17" value="Phân quyền &lt;br&gt;người/nhóm &lt;br&gt;người dùng" style="html=1;dashed=0;whitespace=wrap;" vertex="1" parent="1">
          <mxGeometry x="-69" y="580" width="100" height="50" as="geometry" />
        </mxCell>
        <mxCell id="tBPBzIj6Ai8y_hr5QdfF-19" value="Báo cáo/Thống kê" style="html=1;dashed=0;whitespace=wrap;" vertex="1" parent="1">
          <mxGeometry x="230" y="260" width="100" height="50" as="geometry" />
        </mxCell>
        <mxCell id="tBPBzIj6Ai8y_hr5QdfF-20" value="Quàn lý &lt;br&gt;tài khoản" style="html=1;dashed=0;whitespace=wrap;" vertex="1" parent="1">
          <mxGeometry x="80" y="260" width="100" height="50" as="geometry" />
        </mxCell>
        <mxCell id="tBPBzIj6Ai8y_hr5QdfF-21" value="Quản lý &lt;br&gt;người dùng" style="html=1;dashed=0;whitespace=wrap;" vertex="1" parent="1">
          <mxGeometry x="-80" y="260" width="90" height="50" as="geometry" />
        </mxCell>
        <mxCell id="tBPBzIj6Ai8y_hr5QdfF-22" value="Hành chính" style="html=1;dashed=0;whitespace=wrap;" vertex="1" parent="1">
          <mxGeometry x="-250" y="260" width="100" height="50" as="geometry" />
        </mxCell>
        <mxCell id="tBPBzIj6Ai8y_hr5QdfF-24" value="Quản lý/Tìm kiếm&lt;br&gt;đơn vị hành chính" style="html=1;dashed=0;whitespace=wrap;" vertex="1" parent="1">
          <mxGeometry x="-239" y="370" width="100" height="50" as="geometry" />
        </mxCell>
        <mxCell id="tBPBzIj6Ai8y_hr5QdfF-25" value="Quản lý/Tìm&lt;br&gt;kiếm người/nhóm &lt;br&gt;người dùng" style="html=1;dashed=0;whitespace=wrap;" vertex="1" parent="1">
          <mxGeometry x="-69" y="370" width="100" height="50" as="geometry" />
        </mxCell>
        <mxCell id="tBPBzIj6Ai8y_hr5QdfF-27" value="Quản lý trạng thái&lt;br&gt;người/nhóm người&lt;br&gt;dùng" style="html=1;dashed=0;whitespace=wrap;" vertex="1" parent="1">
          <mxGeometry x="-69" y="480" width="110" height="50" as="geometry" />
        </mxCell>
        <mxCell id="tBPBzIj6Ai8y_hr5QdfF-30" value="Quản lý/Tìm kiếm&lt;br&gt;lịch sử tác động&lt;br&gt;hệ thống" style="html=1;dashed=0;whitespace=wrap;" vertex="1" parent="1">
          <mxGeometry x="-69" y="760" width="100" height="50" as="geometry" />
        </mxCell>
        <mxCell id="tBPBzIj6Ai8y_hr5QdfF-31" value="Đăng nhập/xuất" style="html=1;dashed=0;whitespace=wrap;" vertex="1" parent="1">
          <mxGeometry x="90" y="370" width="100" height="50" as="geometry" />
        </mxCell>
        <mxCell id="tBPBzIj6Ai8y_hr5QdfF-32" value="Quên mật khẩu" style="html=1;dashed=0;whitespace=wrap;" vertex="1" parent="1">
          <mxGeometry x="90" y="480" width="100" height="50" as="geometry" />
        </mxCell>
        <mxCell id="tBPBzIj6Ai8y_hr5QdfF-33" value="Đổi mật khẩu" style="html=1;dashed=0;whitespace=wrap;" vertex="1" parent="1">
          <mxGeometry x="90" y="580" width="100" height="50" as="geometry" />
        </mxCell>
        <mxCell id="tBPBzIj6Ai8y_hr5QdfF-34" value="Quản lý thông tin&lt;br&gt;tài&amp;nbsp;" style="html=1;dashed=0;whitespace=wrap;" vertex="1" parent="1">
          <mxGeometry x="90" y="670" width="100" height="50" as="geometry" />
        </mxCell>
        <mxCell id="tBPBzIj6Ai8y_hr5QdfF-35" value="Báo cáo/Thống kê&lt;br&gt;người dùng" style="html=1;dashed=0;whitespace=wrap;" vertex="1" parent="1">
          <mxGeometry x="240" y="370" width="100" height="50" as="geometry" />
        </mxCell>
        <mxCell id="tBPBzIj6Ai8y_hr5QdfF-36" value="Báo cáo/Thống kê&lt;br&gt;lịch sử truy cập" style="html=1;dashed=0;whitespace=wrap;" vertex="1" parent="1">
          <mxGeometry x="240" y="480" width="100" height="50" as="geometry" />
        </mxCell>
        <mxCell id="tBPBzIj6Ai8y_hr5QdfF-37" value="Báo cáo/Thống kê&lt;br&gt;lịch sử tác động" style="html=1;dashed=0;whitespace=wrap;" vertex="1" parent="1">
          <mxGeometry x="240" y="580" width="100" height="50" as="geometry" />
        </mxCell>
        <mxCell id="tBPBzIj6Ai8y_hr5QdfF-38" value="Báo cáo tổng hợp" style="html=1;dashed=0;whitespace=wrap;" vertex="1" parent="1">
          <mxGeometry x="240" y="670" width="100" height="50" as="geometry" />
        </mxCell>
        <mxCell id="tBPBzIj6Ai8y_hr5QdfF-39" value="Quản lý/Tìm kiếm&lt;br&gt;hộ chăn nuôi lẻ" style="html=1;dashed=0;whitespace=wrap;" vertex="1" parent="1">
          <mxGeometry x="580" y="570" width="100" height="50" as="geometry" />
        </mxCell>
        <mxCell id="tBPBzIj6Ai8y_hr5QdfF-40" value="Quản lý/Tìm kiếm&lt;br&gt;tổ chức cấp&amp;nbsp;&lt;br&gt;giấy phép" style="html=1;dashed=0;whitespace=wrap;" vertex="1" parent="1">
          <mxGeometry x="580" y="670" width="100" height="50" as="geometry" />
        </mxCell>
        <mxCell id="tBPBzIj6Ai8y_hr5QdfF-41" value="Quản lý cơ sở chế&lt;br&gt;biến sản phẩm" style="html=1;dashed=0;whitespace=wrap;" vertex="1" parent="1">
          <mxGeometry x="580" y="770" width="100" height="50" as="geometry" />
        </mxCell>
        <mxCell id="tBPBzIj6Ai8y_hr5QdfF-42" value="" style="html=1;dashed=0;whitespace=wrap;" vertex="1" parent="1">
          <mxGeometry x="580" y="870" width="100" height="50" as="geometry" />
        </mxCell>
      </root>
    </mxGraphModel>
  </diagram>
</mxfile>
